<svg width="125" height="42" viewBox="0 0 125 42" fill="none" xmlns="http://www.w3.org/2000/svg">
<path d="M66.596 2.15894C64.9607 2.65422 64.044 3.60517 63.4058 5.42781C62.7077 7.36933 62.9873 9.29101 64.0839 10.0042C64.4825 10.2618 64.9209 10.3212 65.8979 10.2618C67.3339 10.1825 67.3538 10.2024 66.6757 11.5297C66.1576 12.5203 64.4426 12.9957 63.1467 12.5005C62.7675 12.3618 62.628 12.4014 62.4287 12.7184C62.1497 13.174 62.1099 13.1542 62.9873 13.4514C64.9209 14.0854 67.1147 13.3722 67.9317 11.8071C68.291 11.1335 70.0453 2.99101 69.9058 2.63441C69.7065 2.11932 67.6926 1.84196 66.596 2.15894ZM68.3707 2.95139C68.5899 3.09007 68.5501 3.62497 68.0114 6.16081C67.6727 7.82497 67.2741 9.27121 67.1346 9.35047C67.0145 9.42968 66.4764 9.50893 65.9776 9.50893C64.5024 9.50893 64.044 8.65705 64.4227 6.61651C64.6817 5.22969 65.1606 4.23913 65.9378 3.54573C66.7554 2.7929 67.7324 2.55517 68.3707 2.95139Z" fill="#0A0D0F"/>
<path d="M72.9964 2.19952C72.4982 2.29858 72.0194 2.45707 71.9197 2.55612C71.8002 2.67499 70.1848 9.78725 70.1848 10.2429C70.1848 10.2825 70.4843 10.3024 70.843 10.3024H71.5212L72.1788 7.07309C73.0562 2.79386 72.9765 2.97216 74.0532 2.97216C74.7512 2.97216 75.0103 2.8731 75.1697 2.59575C75.2694 2.37782 75.369 2.15989 75.369 2.10046C75.369 1.94197 74.0332 2.0014 72.9964 2.19952Z" fill="#0A0D0F"/>
<path d="M84.84 2.19908C84.4016 2.29813 83.9825 2.45662 83.9028 2.53587C83.7633 2.67455 81.5501 12.8377 81.5501 13.3132C81.5501 13.4123 81.8291 13.4717 82.1884 13.4321C82.8062 13.3726 82.8261 13.333 83.1455 11.8868L83.4444 10.401L84.6606 10.3812C85.3188 10.3614 86.1159 10.2226 86.4553 10.0444C87.8708 9.31137 88.9873 7.54815 89.2464 5.58681C89.6057 2.87266 87.8309 1.50568 84.84 2.19908ZM87.6117 3.40757C87.9106 3.78399 87.9704 4.10097 87.8907 5.28964C87.7113 7.86513 86.4354 9.50943 84.6208 9.50943C83.9825 9.50943 83.7433 9.43023 83.7433 9.21231C83.7433 9.05379 84.0229 7.66701 84.3418 6.14151C84.6805 4.61606 84.9396 3.30851 84.9396 3.24908C84.9396 3.20946 85.1395 3.07078 85.3985 2.97172C86.0761 2.67455 87.1932 2.89248 87.6117 3.40757Z" fill="#0A0D0F"/>
<path d="M93.1746 2.19875C91.5399 2.69404 90.2833 4.95253 90.2434 7.46857C90.2235 9.17233 90.6027 9.84595 91.8588 10.2818C94.1317 11.094 96.3847 8.91481 96.8038 5.50724C97.0629 3.48649 96.2652 2.19875 94.6704 2.06008C94.1915 2.02045 93.5133 2.07989 93.1746 2.19875ZM94.8098 3.01102C95.4475 3.28838 95.587 3.8431 95.4674 5.40819C95.2682 7.74595 94.1317 9.50911 92.796 9.50911C91.8787 9.50911 91.52 9.01387 91.52 7.72609C91.52 5.46762 92.5967 3.20913 93.8129 2.91196C94.0321 2.85253 94.2313 2.81291 94.2513 2.7931C94.2712 2.7931 94.5303 2.87234 94.8098 3.01102Z" fill="#0A0D0F"/>
<path d="M76.2862 2.51632C75.9475 3.66537 75.1697 7.86537 75.1697 8.53893C75.1697 9.58893 75.808 10.2229 77.0241 10.4012C77.8617 10.5399 79.7753 10.2626 80.2941 9.94557C80.4136 9.86631 80.8526 8.24181 81.2512 6.33993C81.6497 4.43801 82.0091 2.71443 82.0688 2.51632C82.1485 2.23896 82.0489 2.17952 81.4903 2.17952C80.8122 2.17952 80.7723 2.21915 80.593 3.11066C79.2772 9.37101 79.317 9.27195 78.8786 9.39087C78.0211 9.62859 77.1636 9.50973 76.7651 9.11349C76.5453 8.89557 76.3659 8.63799 76.3659 8.55879C76.3659 8.45973 76.6455 7.11255 76.9644 5.58707C77.3031 4.04179 77.5622 2.63518 77.5622 2.47669C77.5622 2.04085 76.4257 2.08047 76.2862 2.51632Z" fill="#0A0D0F"/>
<path d="M105.457 8.59849C103.862 9.15319 102.705 10.54 102.685 11.8872C102.685 13.0758 104.041 14.2645 105.417 14.2645C106.893 14.2645 108.528 13.3136 109.185 12.0655C109.923 10.639 109.205 8.93527 107.71 8.51923C106.773 8.26165 106.335 8.28151 105.457 8.59849Z" fill="#0A0D0F"/>
<path d="M27.117 8.73681C26.3393 9.05379 25.3424 9.88587 25.0234 10.5C24.6246 11.2528 24.6445 12.6792 25.0433 13.2339C26.12 14.7792 29.1108 14.5613 30.6462 12.818C32.321 10.916 31.1845 8.49903 28.6124 8.53869C28.0741 8.53869 27.3961 8.63775 27.117 8.73681Z" fill="#0A0D0F"/>
<path d="M38.2229 17.6123C37.5849 17.7113 36.5281 17.8897 35.89 18.0283L34.7136 18.2859L34.3946 19.3359C34.2351 19.9302 33.956 20.9009 33.7765 21.5151C33.5971 22.1095 33.4974 22.6444 33.5372 22.684C33.5772 22.7236 34.3548 22.5255 35.2919 22.268C36.6876 21.8519 37.3256 21.7727 38.9208 21.8321C40.6156 21.8915 40.9147 21.9509 41.3134 22.3274C41.772 22.783 41.8717 23.5953 41.6125 24.6057C41.4929 25.0613 41.3533 25.1604 40.815 25.1604C40.0174 25.1604 37.3855 25.616 35.6907 26.0519C31.2443 27.2009 28.5127 29.7764 27.8945 33.4217C27.4359 36.0764 28.5724 38.0179 31.2243 39.0283C32.2213 39.4246 32.8593 39.5038 35.5511 39.583C39.0005 39.6821 41.2935 39.385 43.5665 38.5727L44.7628 38.1368L46.2184 31.6981C47.4746 26.2302 47.6939 24.9623 47.7338 23.2783C47.7537 21.5746 47.6939 21.1783 47.2951 20.366C46.7368 19.2566 45.5604 18.3255 44.1647 17.9095C42.9683 17.5529 39.818 17.3944 38.2229 17.6123ZM40.6754 28.568C40.6754 28.7066 40.3365 30.3311 39.9377 32.1538C39.0803 35.9774 39.18 35.8585 36.9668 35.8585C35.571 35.8585 34.6339 35.5217 34.2949 34.8878C33.9759 34.2538 34.0756 32.6491 34.5142 31.6981C35.272 30.0142 36.5281 29.1029 38.7613 28.6274C40.3365 28.2906 40.6754 28.2708 40.6754 28.568Z" fill="#0A0D0F"/>
<path d="M56.0483 17.6321C54.2937 17.8698 52.24 18.3452 51.1234 18.8207L50.3059 19.1773L48.1725 28.8452C46.9961 34.1745 45.9792 38.7311 45.9193 38.9887L45.8196 39.4245H49.0896H52.3796L54.2937 30.7868C55.3505 26.0321 56.2676 22.0896 56.3275 22.0103C56.4073 21.9509 57.1849 21.8717 58.0821 21.8321C59.9564 21.7726 60.8539 22.1491 61.093 23.0802C61.1926 23.4368 60.654 26.2103 59.5177 31.3019C58.5806 35.5217 57.8229 39.0877 57.8229 39.2066C57.8229 39.3651 58.76 39.4245 61.0532 39.3849L64.2832 39.3254L65.9378 31.9952C66.8352 27.9538 67.6727 24.1896 67.7923 23.6151C67.9916 22.7038 68.1111 22.5254 68.7893 22.1887C69.2681 21.9509 69.9656 21.7924 70.584 21.7924C72.1788 21.7924 72.9565 22.367 72.9765 23.5358C72.9765 24.0113 70.4245 35.8981 69.6468 38.9887L69.5471 39.4245H72.837H76.1268L76.4457 38.0773C78.7591 27.8745 79.616 23.7142 79.616 22.684C79.596 21.0991 79.1178 19.9698 78.0012 19.0189C76.7452 17.9094 75.4088 17.533 72.7772 17.5528C70.4245 17.5726 68.7494 17.9491 66.9747 18.8405L65.8183 19.4151L64.8611 18.8207C64.343 18.484 63.4656 18.0679 62.9076 17.9094C61.6709 17.533 58.0223 17.3943 56.0483 17.6321Z" fill="#0A0D0F"/>
<path d="M89.2663 17.6125C88.6286 17.7116 87.5918 17.8899 86.9535 18.0286L85.7772 18.2663L85.1594 20.4456C84.8001 21.654 84.541 22.6644 84.5809 22.6842C84.6207 22.7238 85.3985 22.5456 86.3158 22.2682C88.07 21.7531 90.8218 21.6144 91.7989 21.9908C92.6365 22.3078 92.9951 23.0408 92.7959 24.1107L92.6165 25.0417L90.2234 25.3786C83.4644 26.3493 79.9553 28.7465 79.058 33.0654C78.4396 35.9578 79.5362 37.9786 82.288 39.0484C83.285 39.4248 83.9028 39.504 86.7343 39.5833C89.506 39.6427 90.343 39.5833 92.058 39.2465C93.9124 38.8701 95.9064 38.1965 95.9064 37.9587C95.9064 37.8993 96.5839 34.8286 97.4015 31.1437C99.1165 23.4568 99.2361 22.2087 98.4185 20.4654C97.8406 19.2568 96.724 18.3654 95.2282 17.9295C94.0121 17.5531 90.8617 17.3946 89.2663 17.6125ZM91.6993 29.0635C91.6195 29.4795 91.2602 31.0644 90.9215 32.5899C90.5827 34.1154 90.2234 35.4427 90.1038 35.5616C90.0042 35.6607 89.2464 35.7795 88.4493 35.8191C85.558 35.9776 84.5211 34.6701 85.4384 32.0748C86.096 30.2521 87.4921 29.1229 89.7651 28.6276C91.8387 28.1917 91.8985 28.2116 91.6993 29.0635Z" fill="#0A0D0F"/>
<path d="M114.668 17.7315C111.798 18.3853 109.684 19.8711 108.707 21.9513C107.989 23.457 107.949 25.8145 108.607 27.0626C109.225 28.1919 110.701 29.4598 112.655 30.5098C114.449 31.4607 115.247 32.3126 115.247 33.224C115.247 33.9174 114.469 34.8089 113.712 34.9872C112.455 35.3042 109.365 34.7495 107.251 33.7985C106.992 33.6796 106.793 34.056 106.214 35.7995C105.796 36.9683 105.477 37.9985 105.477 38.0579C105.477 38.2758 107.371 39.0089 108.707 39.3258C110.382 39.7221 114.011 39.7023 115.546 39.3258C119.434 38.3154 121.508 36.1362 121.767 32.8079C121.867 31.6193 121.807 31.223 121.428 30.3711C120.85 29.0438 119.354 27.6372 117.341 26.5277C115.227 25.3787 114.449 24.6853 114.449 23.9325C114.449 23.0805 115.327 22.2881 116.463 22.1098C117.5 21.9513 119.733 22.2485 120.77 22.6844C121.428 22.9617 121.448 22.9617 121.647 22.4268C121.886 21.8325 123.023 18.5834 123.023 18.5042C123.023 18.4645 122.425 18.2466 121.687 18.0089C119.912 17.474 116.463 17.3154 114.668 17.7315Z" fill="#0A0D0F"/>
<path d="M2.3927 18.1073C2.3927 18.6026 4.50622 37.1856 4.70561 38.4733L4.82525 39.2261H7.87593H10.9265L16.2503 29.0828C19.1812 23.4959 21.7733 18.6224 21.9727 18.2658L22.3715 17.6318H19.3806H16.4097L13.2794 24.328C11.5646 28.0129 9.98946 31.5196 9.77007 32.1139L9.37134 33.1837L9.45105 32.0941C9.49097 31.4998 9.4112 28.2507 9.25172 24.8629C9.1121 21.4752 8.97255 18.4837 8.97255 18.1667V17.6318H5.68262H2.3927V18.1073Z" fill="#0A0D0F"/>
<path d="M23.528 17.7903C23.528 17.8894 20.5371 32.3912 19.2212 38.6714L19.1016 39.2261H22.2719H25.4222L27.5955 28.6667C28.7918 22.8818 29.8087 18.0082 29.8686 17.8696C29.9284 17.6912 29.2305 17.6318 26.7382 17.6318C24.9636 17.6318 23.528 17.6912 23.528 17.7903Z" fill="#0A0D0F"/>
<path d="M101.668 17.6721C101.668 17.7117 100.652 22.5457 99.4155 28.4297L97.1824 39.1278L100.253 39.1872C101.947 39.207 103.364 39.207 103.423 39.1674C103.503 39.0881 107.87 18.1278 107.87 17.8306C107.87 17.6721 101.728 17.5136 101.668 17.6721Z" fill="#0A0D0F"/>
</svg>
